<svg width="729" height="262" viewBox="0 0 729 262" fill="none" xmlns="http://www.w3.org/2000/svg">
<path d="M18.1558 149.746C13.0779 149.746 8.96143 145.629 8.96143 140.551V133.678C8.96143 132.396 10.0005 131.357 11.2822 131.357C12.564 131.357 13.603 130.318 13.603 129.036V48.6916C13.603 47.4099 12.564 46.3708 11.2822 46.3708C10.0005 46.3708 8.96143 45.3317 8.96143 44.05V37.1764C8.96143 32.0985 13.0779 27.982 18.1558 27.982H62.2655C69.8138 27.982 75.9328 34.1011 75.9328 41.6493V45.1218C75.9328 50.7523 71.3684 55.3167 65.7379 55.3167H60.016C57.5456 55.3167 55.543 53.3141 55.543 50.8438C55.543 48.3734 53.5404 46.3708 51.0701 46.3708H44.8508C38.9457 46.3708 34.1586 51.1579 34.1586 57.063V63.5084C34.1586 71.0615 40.2816 77.1845 47.8347 77.1845H52.3164C57.3943 77.1845 61.5108 81.301 61.5108 86.3789C61.5108 91.4569 57.3943 95.5733 52.3164 95.5733H47.8347C40.2816 95.5733 34.1586 101.696 34.1586 109.249V120.665C34.1586 126.57 38.9457 131.357 44.8508 131.357H51.0701C53.5404 131.357 55.543 129.354 55.543 126.884C55.543 124.414 57.5456 122.411 60.016 122.411H65.7379C71.3684 122.411 75.9328 126.975 75.9328 132.606V136.078C75.9328 143.627 69.8137 149.746 62.2655 149.746H18.1558Z" fill="#070F27"/>
<path d="M106.6 149.746C96.9874 149.746 89.1945 141.953 89.1945 132.34V45.3879C89.1945 35.7749 96.9874 27.982 106.6 27.982H115.309C120.112 27.982 124.006 31.8759 124.006 36.6794C124.006 41.4828 127.906 45.3768 132.709 45.3768C137.513 45.3768 141.412 49.2708 141.412 54.0742C141.412 58.8777 145.312 62.7716 150.115 62.7716C154.919 62.7716 158.818 66.6656 158.818 71.4691C158.818 76.2725 162.715 80.1665 167.518 80.1665C172.325 80.1665 176.224 76.27 176.224 71.4635V45.3879C176.224 35.7749 184.017 27.982 193.63 27.982C203.243 27.982 211.036 35.7749 211.036 45.3879V132.34C211.036 141.953 203.238 149.746 193.625 149.746C184.018 149.746 176.224 141.958 176.224 132.351V123.659C176.224 118.853 172.325 114.956 167.518 114.956C162.715 114.956 158.818 111.062 158.818 106.259C158.818 101.455 154.919 97.5613 150.115 97.5613C145.312 97.5613 141.412 93.6674 141.412 88.8639C141.412 84.0604 137.516 80.1665 132.712 80.1665C127.906 80.1665 124.006 84.0629 124.006 88.8695V132.34C124.006 141.953 116.213 149.746 106.6 149.746Z" fill="#070F27"/>
<path d="M288.783 113.299V61.115C288.783 53.2735 290.385 46.5365 293.59 40.9039C296.353 36.1548 300.11 32.3997 304.862 29.6386C310.167 26.5462 316.522 25 323.926 25C331.441 25 337.906 26.5462 343.321 29.6386C348.073 32.3997 351.831 36.21 354.594 41.0695C354.991 41.7176 355.363 42.3736 355.709 43.0375C358.175 47.7699 354.681 52.9494 349.484 54.1613L345.361 55.1228C341.85 55.9414 338.442 53.4975 336.69 50.3468C335.364 48.1379 333.651 46.426 331.551 45.2111C329.452 43.9963 326.965 43.3888 324.092 43.3888C321.329 43.3888 318.898 43.9963 316.798 45.2111C314.698 46.426 312.985 48.1379 311.659 50.3468C310.001 53.2183 309.172 56.8077 309.172 61.115V113.299C309.172 117.496 310.001 121.031 311.659 123.902C314.422 128.651 318.621 131.026 324.258 131.026C326.578 131.026 328.568 130.529 330.225 129.535C331.994 128.541 333.485 126.994 334.701 124.896C336.469 121.804 337.353 117.938 337.353 113.299V104.937C337.353 101.413 334.496 98.5553 330.971 98.5553C327.446 98.5553 324.589 95.6979 324.589 92.1731V89.3609C324.589 84.283 328.706 80.1665 333.783 80.1665H341.166C350.321 80.1665 357.743 87.5883 357.743 96.7436V113.299C357.743 121.472 356.141 128.43 352.936 134.173C350.173 138.922 346.471 142.622 341.829 145.273C336.967 148.034 331.165 149.414 324.423 149.414C316.908 149.414 310.443 147.868 305.028 144.776C300.165 142.015 296.353 138.204 293.59 133.345C290.385 127.823 288.783 121.141 288.783 113.299Z" fill="#070F27"/>
<path d="M388.411 149.746C378.798 149.746 371.005 141.953 371.005 132.34V45.3879C371.005 35.7749 378.798 27.982 388.411 27.982H397.119C401.923 27.982 405.817 31.8759 405.817 36.6794C405.817 41.4828 409.716 45.3768 414.52 45.3768C419.323 45.3768 423.223 49.2708 423.223 54.0742C423.223 58.8777 427.122 62.7716 431.926 62.7716C436.729 62.7716 440.629 58.8777 440.629 54.0742C440.629 49.2708 444.528 45.3768 449.332 45.3768C454.135 45.3768 458.035 41.4828 458.035 36.6794C458.035 31.8759 461.929 27.982 466.732 27.982H475.441C485.054 27.982 492.846 35.7749 492.846 45.3879V132.34C492.846 141.953 485.054 149.746 475.441 149.746C465.827 149.746 458.035 141.953 458.035 132.34V106.264C458.035 101.458 454.135 97.5613 449.329 97.5613C444.525 97.5613 440.629 101.455 440.629 106.259C440.629 111.062 436.729 114.956 431.926 114.956C427.122 114.956 423.223 111.062 423.223 106.259C423.223 101.455 419.326 97.5613 414.522 97.5613C409.716 97.5613 405.817 101.458 405.817 106.264V132.34C405.817 141.953 398.024 149.746 388.411 149.746Z" fill="#070F27"/>
<path d="M514.639 149.746C509.561 149.746 505.445 145.629 505.445 140.551V134.062C505.445 132.568 506.656 131.357 508.15 131.357C509.534 131.357 510.691 130.326 510.86 128.953C512.749 113.651 518.611 83.9877 528.445 39.964C530.009 32.9628 536.233 27.982 543.406 27.982C550.58 27.982 556.804 32.9628 558.368 39.964C568.202 83.9877 574.064 113.651 575.953 128.953C576.122 130.326 577.279 131.357 578.663 131.357C580.157 131.357 581.368 132.568 581.368 134.062V140.551C581.368 145.629 577.252 149.746 572.174 149.746H560.724C555.646 149.746 551.529 145.629 551.529 140.551V133.399C551.529 132.271 552.443 131.357 553.571 131.357C554.783 131.357 555.729 130.307 555.593 129.102C555.53 128.546 555.464 127.974 555.394 127.386C555.181 125.584 553.649 124.233 551.835 124.233H534.978C533.164 124.233 531.631 125.584 531.419 127.386C531.349 127.974 531.283 128.546 531.22 129.102C531.084 130.307 532.03 131.357 533.242 131.357C534.37 131.357 535.284 132.271 535.284 133.399V140.551C535.284 145.629 531.167 149.746 526.089 149.746H514.639ZM536.031 98.7752C535.238 103.207 538.904 105.845 543.406 105.845C547.909 105.845 551.575 103.207 550.782 98.7752C549.34 90.714 537.473 90.714 536.031 98.7752Z" fill="#070F27"/>
<rect width="21.6105" height="119.622" rx="10.8052" transform="matrix(0.969141 -0.246507 0.246802 0.969066 226.816 31.2256)" stroke="#070F27" stroke-width="10"/>
<path d="M24.7 228H6.7V158H24.7V182.9H51.1V158H69.1V228H51.1V198.9H24.7V228ZM101.781 228H82.7813L112.181 157.6H129.481L158.881 228H139.581L133.681 213.2H107.681L101.781 228ZM120.681 180.1L113.381 198.8H127.981L120.681 180.1ZM204.426 229.4C193.226 229.4 183.926 226 176.526 219.2C169.126 212.4 165.426 203.7 165.426 193C165.426 182.3 169.126 173.6 176.426 166.8C183.826 160 193.126 156.6 204.326 156.6C210.926 156.6 216.926 157.9 222.426 160.6V178.3C216.926 174.9 211.026 173.2 204.526 173.2C198.626 173.2 193.726 175.1 189.826 178.8C185.926 182.5 183.926 187.3 183.926 193C183.926 198.8 185.926 203.6 189.926 207.3C194.026 211 199.126 212.8 205.226 212.8C212.626 212.8 218.726 210.9 223.626 207.2V225C217.926 227.9 211.526 229.4 204.426 229.4ZM258.813 228H240.813V158H258.813V184.7L281.513 158H303.113L276.013 190.2L308.113 228H286.213L258.813 196.9V228ZM333.648 228H314.648L344.048 157.6H361.348L390.748 228H371.448L365.548 213.2H339.548L333.648 228ZM352.548 180.1L345.248 198.8H359.848L352.548 180.1ZM429.613 228H411.613V173.8H390.613V158H450.713V173.8H429.613V228ZM484.235 228H466.235V158H484.235V182.9H510.635V158H528.635V228H510.635V198.9H484.235V228ZM569.516 207.2C573.016 210.9 577.416 212.8 582.716 212.8C588.016 212.8 592.316 210.9 595.816 207.2C599.316 203.5 601.116 198.7 601.116 193C601.116 187.3 599.316 182.5 595.816 178.8C592.316 175.1 588.016 173.2 582.716 173.2C577.416 173.2 573.016 175.1 569.516 178.8C566.016 182.5 564.316 187.3 564.316 193C564.316 198.7 566.016 203.5 569.516 207.2ZM609.116 218.8C602.116 225.9 593.316 229.4 582.716 229.4C572.116 229.4 563.316 225.9 556.316 218.8C549.316 211.7 545.816 203.1 545.816 193C545.816 182.9 549.316 174.3 556.316 167.2C563.316 160.1 572.116 156.6 582.716 156.6C593.316 156.6 602.116 160.1 609.116 167.2C616.116 174.3 619.616 182.9 619.616 193C619.616 203.1 616.116 211.7 609.116 218.8ZM654.529 228H636.829V158H652.229L682.829 196.5V158H700.429V228H685.529L654.529 189.3V228Z" fill="#070F27"/>
</svg>
