<svg width="69" height="71" viewBox="0 0 69 71" fill="none" xmlns="http://www.w3.org/2000/svg">
<path d="M33.0873 1.60662C32.8109 1.71985 32.5345 1.83307 32.2497 1.94943C29.966 3.14691 28.1938 5.52633 27.106 7.81072C27.296 7.74329 27.4855 7.67827 27.6832 7.61011C35.0205 5.17859 43.2753 5.57951 50.2681 8.95511C57.7913 12.7942 63.4216 19.0758 66.0973 27.1509C68.5272 34.9976 67.6713 43.7704 63.8439 51.0521C60.7883 56.5757 57.5228 60.5283 51.527 64.2406C45.595 67.9133 41.1486 69.2102 34.4085 69.3947C28.014 69.5697 23.8512 68.4718 18.3951 65.9345C13.266 63.5494 10.4352 61.5035 6.75714 57.3547C4.60486 54.927 2.93316 52.0949 2.43816 46.9583C2.40573 46.6218 2.42826 46.4408 2.42826 46.4408C2.42826 46.4408 12.2151 58.0881 19.8303 59.7065C25.4146 60.7229 30.7955 60.2359 36.5963 57.0365C42.4779 53.7926 46.0113 49.4399 47.8628 44.061C48.1861 42.9981 48.1127 42.3948 47.6943 41.3683C47.2231 40.5495 46.9046 40.4281 45.9925 40.1067C44.9622 39.9249 44.2006 40.0476 43.3169 40.6123C42.6958 41.1238 42.0967 41.6606 41.4971 42.1998C35.5668 47.2934 31.0799 49.3086 22.7344 50.7814C20.8521 51.1136 18.2278 50.7256 17.9629 49.6819C17.5665 48.1191 19.0864 47.3526 20.4018 46.3516C22.6634 44.7016 24.9993 43.3216 27.6317 42.3561C28.4924 42.0337 29.1825 41.8251 29.5762 40.9844C29.9827 40.1165 29.9264 39.2961 29.3323 38.5423C28.7999 37.8667 28.1481 37.7116 27.2879 37.7457C26.7399 37.7675 26.4657 37.9178 25.9688 38.116C21.9239 39.7292 19.0762 40.3188 15.2811 40.4704C14.9646 40.4834 14.6504 40.497 14.3237 40.5102C12.112 40.506 9.9617 40.0863 7.05057 39.4155C5.21761 38.9931 3.51121 38.567 2.64788 37.4632C1.92061 36.2189 1.72581 35.0013 1.63305 33.5822C1.6169 33.3889 1.6002 33.198 1.58221 33.0018C0.974581 25.4992 3.78291 18.3163 8.54679 12.6328C10.5879 10.2825 12.9253 8.40237 15.4886 6.65009C15.7087 6.49608 15.9264 6.34151 16.1523 6.18381C19.5046 3.94861 27.6461 0.888578 33.0873 1.60662Z" fill="#EBEBEB"/>
<path d="M21.6621 21.2529C21.273 22.9413 19.5851 23.9938 17.8921 23.6037C16.1991 23.2136 15.1421 21.5285 15.5312 19.84C15.9202 18.1516 17.6081 17.0991 19.3011 17.4892C20.9941 17.8793 22.0512 19.5644 21.6621 21.2529Z" fill="#EBEBEB"/>
<path d="M33.0873 1.60662C32.8109 1.71985 32.5345 1.83307 32.2497 1.94943C29.966 3.14691 28.1938 5.52633 27.106 7.81072C27.296 7.74329 27.4855 7.67827 27.6832 7.61011C35.0205 5.17859 43.2753 5.57951 50.2681 8.95511C57.7913 12.7942 63.4216 19.0758 66.0973 27.1509C68.5272 34.9976 67.6713 43.7704 63.8439 51.0521C60.7883 56.5757 57.5228 60.5283 51.527 64.2406C45.595 67.9133 41.1486 69.2102 34.4085 69.3947C28.014 69.5697 23.8512 68.4718 18.3951 65.9345C13.266 63.5494 10.4352 61.5035 6.75714 57.3547C4.60486 54.927 2.93316 52.0949 2.43816 46.9583C2.40573 46.6218 2.42826 46.4408 2.42826 46.4408C2.42826 46.4408 12.2151 58.0881 19.8303 59.7065C25.4146 60.7229 30.7955 60.2359 36.5963 57.0365C42.4779 53.7926 46.0113 49.4399 47.8628 44.061C48.1861 42.9981 48.1127 42.3948 47.6943 41.3683C47.2231 40.5495 46.9046 40.4281 45.9925 40.1067C44.9622 39.9249 44.2006 40.0476 43.3169 40.6123C42.6958 41.1238 42.0967 41.6606 41.4971 42.1998C35.5668 47.2934 31.0799 49.3086 22.7344 50.7814C20.8521 51.1136 18.2278 50.7256 17.9629 49.6819C17.5665 48.1191 19.0864 47.3526 20.4018 46.3516C22.6634 44.7016 24.9993 43.3216 27.6317 42.3561C28.4924 42.0337 29.1825 41.8251 29.5762 40.9844C29.9827 40.1165 29.9264 39.2961 29.3323 38.5423C28.7999 37.8667 28.1481 37.7116 27.2879 37.7457C26.7399 37.7675 26.4657 37.9178 25.9688 38.116C21.9239 39.7292 19.0762 40.3188 15.2811 40.4704C14.9646 40.4834 14.6504 40.497 14.3237 40.5102C12.112 40.506 9.9617 40.0863 7.05057 39.4155C5.21761 38.9931 3.51121 38.567 2.64788 37.4632C1.92061 36.2189 1.72581 35.0013 1.63305 33.5822C1.6169 33.3889 1.6002 33.198 1.58221 33.0018C0.974581 25.4992 3.78291 18.3163 8.54679 12.6328C10.5879 10.2825 12.9253 8.40237 15.4886 6.65009C15.7087 6.49608 15.9264 6.34151 16.1523 6.18381C19.5046 3.94861 27.6461 0.888578 33.0873 1.60662Z" stroke="#070F27" stroke-width="3"/>
<path d="M21.6621 21.2529C21.273 22.9413 19.5851 23.9938 17.8921 23.6037C16.1991 23.2136 15.1421 21.5285 15.5312 19.84C15.9202 18.1516 17.6081 17.0991 19.3011 17.4892C20.9941 17.8793 22.0512 19.5644 21.6621 21.2529Z" stroke="#070F27" stroke-width="3"/>
</svg>
