<svg width="205" height="210" viewBox="0 0 205 210" fill="none" xmlns="http://www.w3.org/2000/svg">
<path d="M97.9561 5.3134C97.1426 5.64659 96.3291 5.97978 95.4912 6.32221C88.7706 9.84617 83.5553 16.8484 80.3542 23.5709C80.9133 23.3725 81.4709 23.1812 82.0529 22.9806C103.645 15.825 127.937 17.0049 148.516 26.9387C170.656 38.2363 187.224 56.7219 195.098 80.4856C202.249 103.577 199.73 129.394 188.467 150.823C179.475 167.077 169.865 178.709 152.221 189.634C134.764 200.442 121.679 204.258 101.844 204.801C83.0263 205.316 70.7758 202.085 54.7195 194.619C39.6257 187.6 31.2951 181.579 20.4712 169.37C14.1374 162.226 9.21791 153.891 7.7612 138.775C7.66579 137.785 7.73208 137.252 7.73208 137.252C7.73208 137.252 36.5329 171.528 58.9431 176.291C75.3767 179.282 91.2117 177.849 108.282 168.433C125.591 158.887 135.989 146.078 141.438 130.249C142.389 127.121 142.173 125.346 140.942 122.325C139.555 119.915 138.618 119.558 135.934 118.612C132.902 118.077 130.66 118.438 128.06 120.1C126.232 121.605 124.469 123.185 122.705 124.772C105.253 139.761 92.0486 145.692 67.4895 150.026C61.9501 151.003 54.2271 149.862 53.4478 146.79C52.281 142.191 56.7538 139.936 60.6251 136.99C67.2804 132.134 74.1546 128.073 81.9011 125.232C84.434 124.283 86.4649 123.669 87.6236 121.195C88.8197 118.641 88.6541 116.227 86.9059 114.008C85.3391 112.02 83.421 111.564 80.8896 111.664C79.2768 111.728 78.4698 112.171 77.0076 112.754C65.1043 117.501 56.724 119.236 45.5557 119.683C44.6241 119.721 43.6996 119.761 42.7382 119.799C36.2297 119.787 29.9016 118.552 21.3347 116.578C15.9406 115.335 10.919 114.081 8.37838 110.833C6.23816 107.171 5.66489 103.588 5.39193 99.4117C5.34441 98.8429 5.29526 98.2812 5.2423 97.7037C3.45417 75.625 11.7186 54.4868 25.7378 37.7616C31.7445 30.845 38.6229 25.312 46.1663 20.1554C46.8139 19.7022 47.4545 19.2473 48.1196 18.7832C57.9847 12.2054 81.9437 3.20031 97.9561 5.3134Z" fill="#EBEBEB"/>
<path d="M64.3337 63.1287C63.1887 68.0975 58.2216 71.1949 53.2394 70.0468C48.2571 68.8987 45.1465 63.9399 46.2915 58.971C47.4365 54.0022 52.4036 50.9049 57.3859 52.053C62.3681 53.2011 65.4787 58.1598 64.3337 63.1287Z" fill="#EBEBEB"/>
<path d="M97.9561 5.3134C97.1426 5.64659 96.3291 5.97978 95.4912 6.32221C88.7706 9.84617 83.5553 16.8484 80.3542 23.5709C80.9133 23.3725 81.4709 23.1812 82.0529 22.9806C103.645 15.825 127.937 17.0049 148.516 26.9387C170.656 38.2363 187.224 56.7219 195.098 80.4856C202.249 103.577 199.73 129.394 188.467 150.823C179.475 167.077 169.865 178.709 152.221 189.634C134.764 200.442 121.679 204.258 101.844 204.801C83.0263 205.316 70.7758 202.085 54.7195 194.619C39.6257 187.6 31.2951 181.579 20.4712 169.37C14.1374 162.226 9.21791 153.891 7.7612 138.775C7.66579 137.785 7.73208 137.252 7.73208 137.252C7.73208 137.252 36.5329 171.528 58.9431 176.291C75.3767 179.282 91.2117 177.849 108.282 168.433C125.591 158.887 135.989 146.078 141.438 130.249C142.389 127.121 142.173 125.346 140.942 122.325C139.555 119.915 138.618 119.558 135.934 118.612C132.902 118.077 130.66 118.438 128.06 120.1C126.232 121.605 124.469 123.185 122.705 124.772C105.253 139.761 92.0486 145.692 67.4895 150.026C61.9501 151.003 54.2271 149.862 53.4478 146.79C52.281 142.191 56.7538 139.936 60.6251 136.99C67.2804 132.134 74.1546 128.073 81.9011 125.232C84.434 124.283 86.4649 123.669 87.6236 121.195C88.8197 118.641 88.6541 116.227 86.9059 114.008C85.3391 112.02 83.421 111.564 80.8896 111.664C79.2768 111.728 78.4698 112.171 77.0076 112.754C65.1043 117.501 56.724 119.236 45.5557 119.683C44.6241 119.721 43.6996 119.761 42.7382 119.799C36.2297 119.787 29.9016 118.552 21.3347 116.578C15.9406 115.335 10.919 114.081 8.37838 110.833C6.23816 107.171 5.66489 103.588 5.39193 99.4117C5.34441 98.8429 5.29526 98.2812 5.2423 97.7037C3.45417 75.625 11.7186 54.4868 25.7378 37.7616C31.7445 30.845 38.6229 25.312 46.1663 20.1554C46.8139 19.7022 47.4545 19.2473 48.1196 18.7832C57.9847 12.2054 81.9437 3.20031 97.9561 5.3134Z" stroke="#070F27" stroke-width="10"/>
<path d="M64.3337 63.1287C63.1887 68.0975 58.2216 71.1949 53.2394 70.0468C48.2571 68.8987 45.1465 63.9399 46.2915 58.971C47.4365 54.0022 52.4036 50.9049 57.3859 52.053C62.3681 53.2011 65.4787 58.1598 64.3337 63.1287Z" stroke="#070F27" stroke-width="10"/>
</svg>
